#!OML:ASF I:\Random Stuff\random\construction\7_22_03\Session 2\subj1.ASF
:FULLY-SPECIFIED
:DEGREES
813
root -10.7943 17.6289 -0.418248 -176.912 64.7488 -181.724
lowerback 3.61809 -4.11916 -0.239323
upperback -0.904136 -5.28944 4.7444
thorax -2.48489 -2.56653 5.32798
lowerneck -10.6614 -12.6419 -10.6316
upperneck 24.2834 -16.7941 6.55152
head 11.0898 -7.77385 1.79454
rclavicle 4.94974e-014 -1.43125e-014
rhumerus -32.7591 -2.62884 -61.2942
rradius 53.2572
rwrist 5.87503
rhand -31.8165 17.4385
rfingers 7.12502
rthumb -5.07154 -12.4808
lclavicle 4.94974e-014 -1.43125e-014
lhumerus -30.0321 -10.3065 95.4998
lradius 38.4428
lwrist 12.8649
lhand -17.9317 51.9331
lfingers 7.12502
lthumb 8.33628 441.749
rfemur -16.1491 9.89586 22.0194
rtibia 21.3581
rfoot -6.33386 -25.0917
rtoes -2.08688
lfemur -5.39502 -2.10348 -18.3958
ltibia 32.3602
lfoot -11.2576 -8.00601
ltoes -22.7162
814
root -10.9015 17.6201 -0.428483 -176.322 64.9653 -181.088
lowerback 3.67174 -4.06866 -0.339569
upperback -0.920518 -5.22857 4.71115
thorax -2.53161 -2.53488 5.35218
lowerneck -10.6169 -12.6416 -10.5858
upperneck 24.1141 -16.8092 6.57082
head 11.0162 -7.78395 1.79703
rclavicle -7.44449e-014 0
rhumerus -33.026 -3.05458 -61.0458
rradius 52.9427
rwrist 5.67218
rhand -32.1855 17.3507
rfingers 7.12502
rthumb -5.42781 -12.5597
lclavicle -7.44449e-014 0
lhumerus -29.9586 -10.1504 95.3596
lradius 38.6392
lwrist 13.197
lhand -18.2459 52.2664
lfingers 7.12502
lthumb 8.03303 442.094
rfemur -16.5974 9.66886 22.0992
rtibia 21.4239
rfoot -5.89573 -24.5913
rtoes -2.82833
lfemur -4.99943 -2.79582 -18.2639
ltibia 31.1983
lfoot -12.1759 -7.88248
ltoes -25.3512
815
root -11.0133 17.612 -0.439514 -175.822 65.2303 -180.549
lowerback 3.69569 -4.03521 -0.512057
upperback -0.89545 -5.19664 4.68343
thorax -2.50925 -2.51864 5.41895
lowerneck -10.567 -12.5752 -10.8802
upperneck 24.049 -16.7225 6.80745
head 11.027 -7.7493 1.93885
rclavicle 6.39093e-014 -9.54166e-015
rhumerus -33.1833 -3.21514 -60.8437
rradius 52.5223
rwrist 5.41859
rhand -32.4746 17.1005
rfingers 7.12502
rthumb -5.70699 -12.8026
lclavicle 6.39093e-014 -9.54166e-015
lhumerus -29.8679 -9.87285 95.1664
lradius 38.8603
lwrist 13.6355
lhand -18.5197 52.4512
lfingers 7.12502
lthumb 7.76872 442.288
rfemur -17.0633 9.54736 22.1198
rtibia 21.5043
rfoot -5.38831 -24.1683
rtoes -4.06579
lfemur -4.61327 -3.41314 -18.2479
ltibia 30.0861
lfoot -12.9806 -7.49775
ltoes -27.294
816
root -11.1315 17.6021 -0.451258 -175.511 65.4459 -180.186
lowerback 3.75221 -4.0167 -0.709416
upperback -0.853858 -5.18961 4.59608
thorax -2.48907 -2.51598 5.44034
lowerneck -10.5951 -12.516 -11.3789
upperneck 24.2004 -16.704 7.40691
head 11.1979 -7.71124 2.21893
rclavicle -4.18442e-014 1.74931e-014
rhumerus -33.3236 -3.39011 -60.7328
rradius 51.9185
rwrist 5.42145
rhand -32.721 17.008
rfingers 7.12502
rthumb -5.94486 -12.8886
lclavicle -4.18442e-014 1.74931e-014
lhumerus -29.7677 -9.5278 94.9228
lradius 39.0157
lwrist 13.9324
lhand -18.784 52.6273
lfingers 7.12502
lthumb 7.51366 442.474
rfemur -17.5305 9.5622 22.0039
rtibia 21.5845
rfoot -4.95479 -23.8905
rtoes -4.62703
lfemur -4.27658 -3.91825 -18.3887
ltibia 29.062
lfoot -13.7347 -6.85726
ltoes -27.9273
817
root -11.255 17.5899 -0.461466 -175.443 65.6051 -180.031
lowerback 3.89863 -4.01492 -0.973312
upperback -0.805435 -5.21073 4.45545
thorax -2.50854 -2.52694 5.45196
lowerneck -10.5867 -12.4833 -11.0629
upperneck 24.0432 -16.6406 7.10675
head 11.0682 -7.69775 2.08129
rclavicle 7.53394e-014 -5.24792e-014
rhumerus -33.5377 -3.66497 -60.7162
rradius 51.275
rwrist 5.60023
rhand -32.8473 16.9105
rfingers 7.12502
rthumb -6.06679 -12.9827
lclavicle 7.53394e-014 -5.24792e-014
lhumerus -29.6607 -9.123 94.6507
lradius 39.077
lwrist 14.0283
lhand -19.1413 52.9369
lfingers 7.12502
lthumb 7.1688 442.796
rfemur -17.9608 9.56553 21.7786
rtibia 21.6552
rfoot -4.62861 -23.6391
rtoes -4.3453
lfemur -3.94763 -4.38204 -18.71
ltibia 28.0961
lfoot -14.6088 -5.81163
ltoes -28.213
818
root -11.3805 17.5831 -0.47016 -175.345 65.7663 -179.877
lowerback 4.02351 -4.04125 -1.2796
upperback -0.746238 -5.27203 4.33197
thorax -2.49522 -2.55804 5.5047
lowerneck -10.7547 -12.4342 -10.6303
upperneck 24.0275 -16.5503 6.72303
head 11.0038 -7.66159 1.89077
rclavicle 1.55052e-014 -7.79236e-014
rhumerus -33.7231 -3.91586 -60.7431
rradius 50.6396
rwrist 5.76956
rhand -32.813 16.714
rfingers 7.12502
rthumb -6.03364 -13.1801
lclavicle 1.55052e-014 -7.79236e-014
lhumerus -29.494 -8.57224 94.3615
lradius 39.0242
lwrist 14.0951
lhand -19.235 53.0687
lfingers 7.12502
lthumb 7.07828 442.93
rfemur -18.3845 9.59704 21.566
rtibia 21.6911
rfoot -4.27826 -23.4257
rtoes -4.19772
lfemur -3.67642 -4.89575 -19.0848
ltibia 27.193
lfoot -15.3621 -4.45674
ltoes -27.944
819
root -11.5088 17.5813 -0.479944 -175.232 65.9041 -179.751
lowerback 4.08223 -4.05657 -1.57285
upperback -0.670035 -5.31926 4.20148
thorax -2.43021 -2.58374 5.53558
lowerneck -11.0278 -12.3858 -10.0776
upperneck 24.0632 -16.4843 6.34632
head 10.9708 -7.62041 1.67502
rclavicle 7.81224e-014 -1.98785e-014
rhumerus -33.8626 -4.27984 -60.7729
rradius 49.8925
rwrist 5.96834
rhand -32.8522 16.7582
rfingers 7.12502
rthumb -6.07154 -13.1348
lclavicle 7.81224e-014 -1.98785e-014
lhumerus -29.3002 -8.07711 94.0922
lradius 38.8967
lwrist 14.1649
lhand -18.9312 52.7947
lfingers 7.12502
lthumb 7.37159 442.646
rfemur -18.8128 9.50028 21.3516
rtibia 21.6657
rfoot -3.86164 -23.1273
rtoes -4.44327
lfemur -3.51881 -5.32408 -19.4704
ltibia 26.3796
lfoot -15.9451 -3.11968
ltoes -27.4336
820
root -11.6429 17.5725 -0.490123 -175.003 66.0237 -179.489
lowerback 4.1563 -4.04284 -1.78272
upperback -0.594944 -5.32221 4.06732
thorax -2.38742 -2.58753 5.51541
lowerneck -10.9108 -12.2726 -10.8548
upperneck 24.0999 -16.4008 7.20357
head 11.1152 -7.55532 2.10515
rclavicle -2.8128e-014 4.77083e-015
rhumerus -34.0584 -4.66929 -60.8593
rradius 49.0619
rwrist 5.95532
rhand -32.6765 16.9394
rfingers 7.12502
rthumb -5.90192 -12.9584
lclavicle -2.8128e-014 4.77083e-015
lhumerus -29.2399 -7.98066 93.9013
lradius 38.8637
lwrist 14.5484
lhand -18.7634 52.7093
lfingers 7.12502
lthumb 7.53357 442.555
rfemur -19.2251 9.32958 21.181
rtibia 21.5307
rfoot -3.34282 -22.7535
rtoes -4.92356
lfemur -3.46512 -5.72857 -19.7883
ltibia 25.6919
lfoot -16.5789 -1.83714
ltoes -27.1443
821
root -11.7828 17.5561 -0.497119 -174.512 66.2033 -178.953
lowerback 4.25966 -4.01642 -1.9591
upperback -0.524651 -5.30242 3.99703
thorax -2.36545 -2.57862 5.54499
lowerneck -10.8309 -12.1418 -11.755
upperneck 24.2706 -16.3029 8.17705
head 11.3389 -7.47658 2.60014
rclavicle 2.78299e-014 3.18055e-015
rhumerus -34.3332 -4.77722 -61.0062
rradius 48.284
rwrist 5.65879
rhand -32.2464 17.2349
rfingers 7.12502
rthumb -5.48662 -12.6741
lclavicle 2.78299e-014 3.18055e-015
lhumerus -29.0926 -7.81353 93.781
lradius 38.6166
lwrist 14.9555
lhand -18.8434 52.9714
lfingers 7.12502
lthumb 7.45628 442.82
rfemur -19.6593 9.28464 21.1145
rtibia 21.319
rfoot -2.61378 -22.3933
rtoes -6.06729
lfemur -3.49712 -6.2643 -19.9705
ltibia 25.1211
lfoot -17.2228 -0.606035
ltoes -26.1396
